<?xml version="1.0" encoding="utf-8"?>
<!--Designed by Vexels.com - 2017 All Rights Reserved - https://vexels.com/terms-and-conditions/-->

<svg version="1.1" id="Capa_1" xmlns="http://www.w3.org/2000/svg" xmlns:xlink="http://www.w3.org/1999/xlink" x="0px" y="0px"
	 width="1200px" height="1200px" viewBox="0 0 1200 1200" enable-background="new 0 0 1200 1200" xml:space="preserve">
<g>
	<path fill-rule="evenodd" clip-rule="evenodd" fill="#BC1D37" d="M364.29,926.606c-0.318,23.243,0.562,46.493-0.296,69.73
		c-0.379,10.233,0.214,21.657-5.64,30.594c-7.712,11.773-21.612,9.111-27.846-2.505c-11.094-20.67-3.657-58.133-3.462-80.839
		c0.249-28.715,0.305-57.421-0.163-86.132c-0.402-24.736-1.002-49.475-1.855-74.198c-0.399-11.558-0.525-23.263-2.002-34.746
		c-0.35-2.721-8.012-33.063-13.408-19.018c-2.931,7.627-0.975,19.686-0.959,27.705c0.026,14.387,0.062,28.771,0.111,43.157
		c0.089,25.837,0.204,51.674,0.272,77.511c0.136,50.865-0.867,102.055,1.758,152.863c0.635,12.291,2.956,28.701-4.563,39.511
		c-6.205,8.918-19.038,9.695-25.943,1.094c-7.177-8.937-5.144-23.606-5.372-34.26c-0.365-17.072-0.497-34.149-0.707-51.225
		c-0.581-47.296-1.778-94.581-2.232-141.88c-0.483-50.45,6.056-105.252-11.283-153.286c-9.435-26.139-26.139-43.889-39.882-67.263
		c-6.266-10.652-10.793-23.173-19.495-32.188c-9.864-10.218-23.278-15.35-31.744-27.202c-12.663-17.723-14.612-43.986-31.887-58.26
		c-21.051-17.382-45.098-34.323-61.056-56.986C60.872,426.4,47.417,399.228,52.04,371.257c2.057-12.44,6.088-24.73,3.15-37.407
		c-3.316-14.304-10.617-28.684,3.31-39.806c5.403-4.315,20.479-15.603,27.815-14.551c7.981,1.145,11.539,8.365,12.863-4.063
		c0.875-8.201,3.974-17.223,4.339-25.01c0.581-12.414-14.244-26.504-22.033-34.496c-17.409-17.863-31.217-38.407-25.446-64.895
		c5.97-27.398,35.79-34.018,58.828-23.306c23.06,10.72,39.935,31.695,62.996,43.16c29.421,14.624,57.727,25.414,90.96,26.259
		c28.035,0.713,52.261-14.406,80.721-11.367c13.67,1.459,27.875,6.254,41.634,5.797c6.903-0.23,11.285-4.384,17.753-5.572
		c8.678-1.594,17.738,2.586,25.229,6.416c20.013,10.235,37.715,24.346,57.69,34.625c23.044,11.859,53.482,20.426,79.273,22.984
		c12.21,1.213,23.891-3.823,36.057-4.094c12.115-0.271,25.57,0.74,36.965,5.177c12.314,4.794,15.053,10.815,16.064,23.269
		c1.191,14.65,2.512,21.115,16.132,28.41c9.366,5.018,18.958,12.543,29.134,15.639c11.598,3.524,29.457,0.669,41.168-1.5
		c23.736-4.396,46.525-9.805,70.689-12.217c46.209-4.613,92.848-5.913,138.592-14.466c26.252-4.909,51.322-15.314,77.901-18.106
		c14.731-1.549,30.317-2.151,44.366-7.276c6.96-2.539,35.65-22.682,41.447-15.112c7.672,10.014,12.208,4.461,23.346,5.967
		c12.161,1.645,5.374,18.822,2.732,25.672c-9.478,24.588-38.213,42.291-54.998,62.3c-8.763,10.444-12.478,20.423-11.947,34.122
		c0.451,11.504,2.973,28.318-8.059,36.08c-26.731,18.809-10.851-47.455-27.792-46.78c-24.991,0.995-38.046,34.826-45.843,53.341
		c-10.186,24.186-23.174,48.885-29.299,74.438c-6.779,28.324-8.428,55.611-8.537,84.521c-0.055,14.95,9.65,74.364-11.98,78.324
		c-23.26,4.261-16.283-50.516-15.848-61.955c1.037-27.083,0.643-53.661-0.785-80.745c-1.295-24.564-2.291-51.477-10.189-74.922
		c-7.211-21.408-32.83-46.725-54.861-29.668c-37.53,29.053-61.338,75.229-81.576,117.322c-9.459,19.674-19.293,40.875-23.636,62.381
		c-4.921,24.375-1.462,49.348-0.729,73.93c0.391,13.356,7.051,58.124-20.152,43.562c-12.123-6.489-12.641-19.608-12.013-31.8
		c0.849-16.463,0.079-32.988-0.343-49.461c-0.391-15.338,6.207-65.724-23.509-47.213c-8.652,5.389-8.206,18.529-17.634,23.006
		c-14.527,6.899-20.213-11.313-23.588-21.177c-7.469-21.841-36.898-28.154-56.721-21.984c-25.029,7.788-36.292,43.729-44.668,65.45
		c-19.594,50.818-27.89,104.502-27.996,158.849c-0.089,42.717-0.301,85.435-0.459,128.151c-0.055,14.163,7.146,47.592-16.006,48.909
		c-26.063,1.483-18.579-40.49-18.906-55.898c-0.831-39.025-1.11-78.054-1.936-117.075c-0.291-13.704,3.678-39.949-6.162-50.876
		c-6.443-7.155-17.671-4.584-24.715,0.206c-11.09,7.539-10.557,19.377-10.588,31.303c-0.049,19.147-0.104,38.297-0.15,57.445
		c-0.05,21.188,4.135,47.286-1.621,67.775c-5.235,18.631-28.242,14.458-31.025-3.395c-3.381-21.673-0.274-45.701-0.108-67.579
		c0.089-11.81,7.444-53.318-10.896-54.141c-19.358-0.868-47.242,8.652-46.802,30.688C364.49,841.38,364.865,884.04,364.29,926.606
		C364.211,932.368,364.346,922.42,364.29,926.606z"/>
	<path fill-rule="evenodd" clip-rule="evenodd" fill="#DB1D2B" d="M1139.788,255.589c-9.788,0.287-14.027-1.418-22.412-3.291
		c-2.716-0.606-3.764-4.445-6.117-3.419c-6.769,2.942-13.19,6.595-19.747,9.963c-29.012,14.901-62.94,11.614-93.756,21.09
		c-45.977,14.14-93.875,17.749-141.578,21.456c-48.666,3.779-96.666,16.161-145.078,17.854c-10.207,0.361-20.74-8.813-29.277-13.512
		c-8.451-4.654-22.516-9.516-27.828-17.936c-5.08-8.053-2.588-19.195-4.186-28.157c-2.215-12.427-19.764-12.428-29.712-13.271
		c-13.067-1.108-24.492,1.234-37.263,3.263c-11.986,1.905-23.397-1.856-34.907-4.685c-27.11-6.66-51.378-13.961-75.086-28.984
		c-16.684-10.572-42.793-33.836-63.911-29.959c-6.468,1.188-10.85,5.342-17.753,5.572c-6.789,0.226-13.503-1.351-20.11-2.654
		c-16.272-3.208-34.359-6.047-50.744-2.179c-12.267,2.9-24.028,7.784-36.55,9.622c-15.142,2.215-30.469-0.42-45.489-2.297
		c-26.497-3.314-56.46-18.891-78.67-33.519c-21.642-14.252-39.431-38.265-67.714-37.919c-30.769,0.377-41.984,30.045-34.748,56.652
		c6.696,24.621,29.225,36.854,41.384,58.096c6.674,11.658,1.804,15.227,1.204,27.242c-0.123,2.48,0.283,22.498-5.903,18.641
		c-16.099-10.037-46.482,12.996-43.652,31.508c2.049,13.401,7.429,24.155,5.354,38.109c-2.308,15.525-6.331,29.672-3.16,45.512
		c5.223,26.084,23.038,52.147,42.382,69.743c8.325,7.573,15.177,16.712,24.332,23.264c8.536,6.11,18.891,12.856,25.097,21.427
		c13.553,18.714,15.35,43.895,33.143,59.99c7.613,6.858,17.312,11.302,24.394,18.846c9.891,10.537,14.432,25.219,22.43,37.088
		c15.399,22.855,29.525,41.497,38.683,68.006c9.938,28.776,8.523,58.184,8.702,88.219c0.267,44.687,0.644,89.373,1.429,134.053
		c0.435,24.715,1.045,49.425,1.33,74.144c0.132,11.551-5.55,81.414,11.79,78.092c25.251-4.84,14.809-57.091,14.465-74.623
		c-0.513-26.243-0.882-52.488-0.995-78.736c-0.151-34.912-0.188-69.824-0.324-104.734c-0.08-20.83-0.127-41.659-0.182-62.488
		c-0.021-7.81-0.334-15.845,0.185-23.638c0.728-10.924,8.798-6.896,11.287,0.826c9.588-11.964,14.11,44.844,14.252,48.471
		c1.052,27.021,1.68,54.078,2.109,81.12c0.414,26.128,0.46,52.256,0.229,78.388c-0.136,15.143-0.018,30.299-0.341,45.438
		c-0.292,13.502-2.923,30.65,3.693,43.066c5.871,11.014,17.423-0.415,20.628-7.904c4.126-9.644,3.22-21.753,3.482-32.032
		c0.624-24.493,0.062-49.029,0.197-73.53c0.146-26.518-0.079-53.039-0.293-79.557c-0.176-21.724-8.599-53.487,16.601-62.328
		c9.677-3.396,24.441-10.569,34.745-6.126c4.348,1.876,4.961,4.271,9.612,6.271c5.368,2.304,5.94,8.971,6.047,13.893
		c0.63,29.065-0.324,58.219-0.52,87.29c-0.063,9.395-1.579,20.653,3.71,29.047c8.928,1.256,15.797-3.728,18.188-12.23
		c6.684-23.763,1.586-54.668,1.648-79.316c0.048-18.99-6.153-51.758,2.948-68.754c14.204-26.526,45.922-7.734,47.09,15.396
		c2.333,46.188,1.61,92.516,2.823,138.742c0.32,12.188-6.558,68.634,14.721,59.99c10.489-4.26,11.987-16.7,11.881-26.514
		c-0.175-16.328-0.981-32.589-0.915-48.944c0.201-48.947-2.009-98.579,2.381-147.372c4.813-53.51,18.649-118.09,50.946-162.391
		c13.154-18.047,37.584-21.352,57.307-12.313c8.32,3.812,18.584,9.62,24.229,17.003c3.27,4.274,7.699,25.087,13.092,24.955
		c12.205-0.291,13.223-14.043,19.582-21.381c4.826-5.568,21.76-11.339,24.701-0.813c19.037-0.865,12.078,60.805,12.334,73.371
		c0.15,7.389-3.354,74.703,19.225,52.465c7.59-7.478,3.758-22.82,3.486-32.293c-0.372-12.947-1.104-25.861-1.711-38.798
		c-2.291-48.688,15.406-90.77,38.629-132.782c10.598-19.18,21.266-38.381,34.098-56.184c11.202-15.546,35.658-50.362,57.946-40.418
		c36.069,16.095,44.083,42.516,48.548,79.989c4.221,35.427,6.082,72.438,3.919,108.026c-1.072,17.623-2.522,36.932,0.378,54.412
		c1.18,7.111,3.766,11.518,10.666,6.907c8.162-5.454,7.402-16.181,6.926-24.706c-2.391-42.834-1.596-86.528,6.922-128.592
		c6.762-33.405,24.254-65.773,37.496-97.096c6.357-15.04,20.174-33.301,37.255-37.113c5.709-1.275,8.357,3.705,13.249,4.616
		c9.093,1.697,7.455,18.407,7.434,24.744c-0.021,6.353-0.163,13.762,3.174,19.45c6.064-0.752,10.747-5.988,12.544-11.549
		c6.429-19.891-3.66-38.621,10.213-56.859c11.517-15.143,25.402-28.934,39.677-41.445
		C1127.969,292.575,1146.214,271.14,1139.788,255.589C1137.637,255.652,1140.71,257.819,1139.788,255.589z"/>
	<g>
		<path fill="#E82D43" d="M344.77,728.501c-3.145-3.459-7.205-5.932-11.759-6.992c8.381,13.657,8.213,31.241,8.943,46.713
			c5.06-7.364,13.223-11.441,21.399-14.365C360.91,743.481,355.771,732.031,344.77,728.501
			C340.928,724.276,350.242,730.257,344.77,728.501z M196.368,551.272c-9.317-23.165-21.998-37.533-42.164-51.821
			c11.143,12.692,15.689,28.881,22.649,43.888c7.31,15.762,19.528,21.841,32.201,32.748
			C203.293,568.835,199.79,559.767,196.368,551.272C194.727,547.192,197.333,553.671,196.368,551.272z M272.063,650.708
			c-10.021-12.368-16.407-26.059-24.819-39.409c-8.263-13.114-20.532-21.932-33.222-30.474
			c15.232,16.104,23.709,38.795,37.491,56.379c16.835,21.48,27.803,48.791,33.869,75.33c3.431-5.504,9.572-8.941,15.975-9.464
			C294.237,683.755,285.043,666.732,272.063,650.708C268.837,646.727,274.737,654.009,272.063,650.708z M507.56,732.773
			c1.358-2.998,0.355-4.55-3.011-4.656C505.553,729.669,506.557,731.222,507.56,732.773
			C507.651,731.647,506.676,731.122,507.56,732.773z M935.729,412.459c-6.971-4.575-14.475-8.766-22.043-12.274
			c23.994,17.454,27.906,47.24,31.311,74.635c3.51-10.072,7.941-19.775,12.012-29.625
			C961.896,433.354,944.973,418.529,935.729,412.459C932.172,410.124,939.564,414.979,935.729,412.459z M1111.552,269.854
			c-11.773-2.133-30.257,12.297-43.15,14.936c-18.966,3.881-38.646,3.219-57.354,8.332c-39.381,10.764-77.725,18.43-118.443,21.964
			c-39.846,3.47-80.529,4.216-119.813,12.198c-19.652,3.992-37.65,7.688-57.83,8.183c-18.443,0.454-31.859-9.858-47.439-18.294
			c10.812,10.988,28.088,16.763,41.105,24.659c18.371,11.146,38.448,9.938,59.178,7.063c21.809-3.027,42.844-9.717,64.898-12.305
			c21.064-2.474,42.217-4.051,63.348-5.814c40.582-3.385,81.688-7.244,120.871-18.941c22.094-6.596,42.889-9.04,65.593-12.455
			c15.874-2.389,31.027-9.314,37.521-25.266C1116.845,273.407,1114.017,271.987,1111.552,269.854
			C1110.066,269.585,1113.803,271.79,1111.552,269.854z M632.943,270.187c-1.273-15.635-38.385-5.552-49.539-4.146
			c-22.12,2.787-47.542-6.813-68.477-12.782c-23.942-6.824-44.18-19.288-64.928-32.721c-9.793-6.342-20.133-13.537-31.271-17.365
			c-7.278-2.501-14.725,4.057-22.45,4.745c-21.688,1.936-42.734-8.55-64.653-5.819c-12.439,1.551-24.192,7.123-36.428,9.761
			c-14.134,3.048-28.448,2.437-42.715,0.786c-46.242-5.35-89.119-27.752-124.669-57.14c-13.223-10.931-39.452-25.721-51.875-4.665
			c-12.213,20.714,3.563,40.676,17.353,54.86c11.963,12.308,30.015,32.292,27.413,51.22c-1.605,11.687-3.45,39.086-16.123,43.662
			c-3.159,1.021-6.36,1.185-9.605,0.488c-8.87-1.682-9.173-1.213-17.25,3.309c-10.12,5.663-11.482,8.688-8.217,19.48
			c7.352,24.33-3.394,44.914-0.901,68.871c4.185,40.236,44.012,73.951,74.246,96.521C116.313,460.664,86.012,434.099,95,391.063
			c2.201-10.524,4.029-21.25,2.23-31.995c-0.966-5.783-7.991-18.886-5.591-24.362c3.008-6.865,15.081-10.761,20.985-14.229
			c10.482,5.567,21.902,2.171,26.062-9.22c2.162-5.92,2.506-12.27,2.705-18.508c0.214-6.641,4.191-11.723,3.896-18.553
			c-0.852-19.661-18.854-37.443-31.788-50.271c-12.813-12.709-23.836-32.303-13.291-50.201c12.368-20.978,38.513-6.936,51.977,3.928
			c30.159,24.336,69.333,47.805,108.382,53.363c24.204,3.451,47.614,4.56,71.209-2.734c22.741-7.028,40.877-8.282,64.458-3.91
			c9.762,1.815,19.785,3.342,29.64,1.257c10.053-2.128,12.099-6.965,22.275-2.372c22.271,10.05,41.25,26.112,63.243,36.748
			c20.732,10.024,43.64,14.072,65.851,19.508c20.605,5.039,35.999-0.865,56.23-1.247
			C633.297,275.571,633.121,272.88,632.943,270.187C632.852,269.053,633.066,271.688,632.943,270.187z M667.229,557.449
			c3.28,3.089,6.067,6.571,8.359,10.449c1.003-1.341,2.13-2.573,3.374-3.696C674.912,562.122,671.385,559.4,667.229,557.449
			C670.541,560.6,670.796,559.123,667.229,557.449z"/>
	</g>
</g>
</svg>
